Coordinates
version=1
nRows=14
nColumns=40
inDegrees=yes

Units are S.I. units (second, meters, Newtons, ...)
If the header above contains a line with 'inDegrees', this indicates whether rotational values are in degrees (yes) or radians (no).

endheader
time	pelvis_tilt	pelvis_list	pelvis_rotation	pelvis_tx	pelvis_ty	pelvis_tz	hip_flexion_r	hip_adduction_r	hip_rotation_r	knee_angle_r	knee_angle_r_beta	ankle_angle_r	subtalar_angle_r	mtp_angle_r	hip_flexion_l	hip_adduction_l	hip_rotation_l	knee_angle_l	knee_angle_l_beta	ankle_angle_l	subtalar_angle_l	mtp_angle_l	lumbar_extension	lumbar_bending	lumbar_rotation	arm_flex_r	arm_add_r	arm_rot_r	elbow_flex_r	pro_sup_r	wrist_flex_r	wrist_dev_r	arm_flex_l	arm_add_l	arm_rot_l	elbow_flex_l	pro_sup_l	wrist_flex_l	wrist_dev_l
      0.61500000	      0.37770350	     -2.41763818	     -7.35453714	      0.23820398	      0.90174046	      0.22395813	    -20.05828416	     -2.39999216	    -10.18990216	     13.99132109	      0.24419462	      3.20356021	      9.42534798	      0.00000000	     25.42245347	     -9.50124850	    -25.55376463	     10.80063790	      0.18850669	     -3.29388831	      8.66322922	      0.00000000	     -2.70493203	     -0.21609174	      0.49500133	     44.02938052	    -15.86724669	     44.02938052	     75.27256512	     44.98044534	      0.00000000	      0.00000000	     44.02938052	    -15.86724669	     44.02938052	     75.27256512	     44.98044534	      0.00000000	      0.00000000
      0.62000000	      0.45871416	     -2.19984053	     -7.34672395	      0.24594150	      0.90184760	      0.22299209	    -20.24520694	     -2.81310989	    -10.10146662	     14.51100871	      0.25326488	      2.06866813	      8.94245869	      0.00000000	     25.21544694	     -9.26735342	    -25.20670081	     11.39324365	      0.19884961	     -3.59816102	      8.42679941	      0.00000000	     -2.71697100	     -0.51892201	      0.67431524	     44.02972421	    -15.86673916	     44.02972421	     75.27225287	     44.98050752	      0.00000000	      0.00000000	     44.02972421	    -15.86673916	     44.02972421	     75.27225287	     44.98050752	      0.00000000	      0.00000000
      0.62500000	      0.73511630	     -1.69162389	     -7.45448432	      0.25368502	      0.90247200	      0.22229206	    -20.59837299	     -3.54585131	     -9.79011824	     15.02951134	      0.26231446	      1.09050156	      8.02200523	      0.00000000	     24.99095917	     -8.86760198	    -25.55289067	     12.49030015	      0.21799686	     -4.17586317	      7.02329676	      0.00000000	     -2.90125935	     -1.15913695	      1.08564011	     44.03129556	    -15.86442000	     44.03129556	     75.27082809	     44.98078963	      0.00000000	      0.00000000	     44.03129556	    -15.86442000	     44.03129556	     75.27082809	     44.98078963	      0.00000000	      0.00000000
      0.63000000	      0.91581112	     -1.33363160	     -7.41854679	      0.26148219	      0.90296343	      0.22123752	    -20.81405282	     -4.09324478	     -9.71401133	     15.63938057	      0.27295868	     -0.13568916	      7.18614959	      0.00000000	     24.74163186	     -8.49974768	    -25.40602579	     13.24600370	      0.23118638	     -4.58930699	      6.47215067	      0.00000000	     -2.99619984	     -1.54686991	      1.34791448	     44.03215718	    -15.86314936	     44.03215718	     75.27004900	     44.98094283	      0.00000000	      0.00000000	     44.03215718	    -15.86314936	     44.03215718	     75.27004900	     44.98094283	      0.00000000	      0.00000000
      0.63500000	      1.03474190	     -1.11552571	     -7.37921701	      0.26923696	      0.90347830	      0.22023844	    -20.92479132	     -4.48985931	     -9.65454346	     16.27695008	      0.28408637	     -1.55722200	      6.59035120	      0.00000000	     24.48822726	     -8.26515299	    -25.07773386	     13.85327406	      0.24178524	     -4.87667767	      6.23017949	      0.00000000	     -3.04363555	     -1.89071035	      1.55144951	     44.03250430	    -15.86263770	     44.03250430	     75.26973562	     44.98100422	      0.00000000	      0.00000000	     44.03250430	    -15.86263770	     44.03250430	     75.26973562	     44.98100422	      0.00000000	      0.00000000
      0.64000000	      1.29323963	     -0.63822295	     -7.41428551	      0.27704933	      0.90434347	      0.21937175	    -21.11839149	     -5.16632653	     -9.46546241	     16.99899236	      0.29668839	     -2.82505941	      5.43708589	      0.00000000	     24.25437451	     -7.86544618	    -25.30955597	     14.90663654	      0.26016989	     -5.37989928	      5.04163329	      0.00000000	     -3.19821681	     -2.45702771	      1.92029959	     44.03389300	    -15.86059179	     44.03389300	     75.26848419	     44.98124811	      0.00000000	      0.00000000	     44.03389300	    -15.86059179	     44.03389300	     75.26848419	     44.98124811	      0.00000000	      0.00000000
      0.64500000	      1.48150398	     -0.30680875	     -7.35798434	      0.28485714	      0.90516829	      0.21830532	    -21.18759348	     -5.67972886	     -9.44806614	     17.80292592	      0.31071967	     -4.31481418	      4.49939245	      0.00000000	     23.97120695	     -7.51480792	    -25.14107583	     15.64407095	      0.27304055	     -5.70872513	      4.46491712	      0.00000000	     -3.30147142	     -2.84230363	      2.18765702	     44.03518057	    -15.85869658	     44.03518057	     75.26732748	     44.98147177	      0.00000000	      0.00000000	     44.03518057	    -15.85869658	     44.03518057	     75.26732748	     44.98147177	      0.00000000	      0.00000000
      0.65000000	      1.63126441	     -0.12807222	     -7.23443507	      0.29265323	      0.90601208	      0.21711583	    -21.18629907	     -6.02523621	     -9.53311287	     18.63729641	      0.32528219	     -6.04166227	      3.79197088	      0.00000000	     23.64872063	     -7.26165163	    -24.74140248	     16.19176769	      0.28259966	     -5.88821392	      4.34973145	      0.00000000	     -3.40497980	     -3.08823832	      2.32756516	     44.03551071	    -15.85821096	     44.03551071	     75.26703153	     44.98152871	      0.00000000	      0.00000000	     44.03551071	    -15.85821096	     44.03551071	     75.26703153	     44.98152871	      0.00000000	      0.00000000
      0.65500000	      1.80243114	      0.25583798	     -7.11834563	      0.30046946	      0.90688474	      0.21585468	    -21.08260946	     -6.59868077	     -9.64853409	     19.71232137	      0.34404491	     -7.52828314	      2.58980773	      0.00000000	     23.45785661	     -6.84758640	    -24.68917726	     17.09418245	      0.29834977	     -6.13142083	      3.36898597	      0.00000000	     -3.46372468	     -3.49641970	      2.55101142	     44.03722977	    -15.85568387	     44.03722977	     75.26549398	     44.98182264	      0.00000000	      0.00000000	     44.03722977	    -15.85568387	     44.03722977	     75.26549398	     44.98182264	      0.00000000	      0.00000000
      0.66000000	      1.98127334	      0.45126141	     -6.92025448	      0.30826680	      0.90791135	      0.21441143	    -21.00210965	     -6.96225105	     -9.84319104	     20.71059773	      0.36146812	     -9.31369691	      1.71951865	      0.00000000	     23.09907964	     -6.51706563	    -24.28894223	     17.63433854	      0.30777727	     -6.21803786	      3.22581889	      0.00000000	     -3.57994631	     -3.65740805	      2.62529103	     44.03768863	    -15.85500983	     44.03768863	     75.26508459	     44.98190042	      0.00000000	      0.00000000	     44.03768863	    -15.85500983	     44.03768863	     75.26508459	     44.98190042	      0.00000000	      0.00000000
      0.66500000	      2.06795002	      0.77870615	     -6.69948334	      0.31605905	      0.90869073	      0.21291022	    -20.65725977	     -7.48930951	    -10.19916439	     22.05928844	      0.38500721	    -10.89561851	      0.55767679	      0.00000000	     22.93216942	     -6.06447576	    -24.02498517	     18.36931543	      0.32060504	     -6.22219920	      2.39824996	      0.00000000	     -3.56632616	     -4.01721946	      2.72583679	     44.03925207	    -15.85271476	     44.03925207	     75.26369300	     44.98216315	      0.00000000	      0.00000000	     44.03925207	    -15.85271476	     44.03925207	     75.26369300	     44.98216315	      0.00000000	      0.00000000
      0.67000000	      2.08900286	      1.14314168	     -6.33795904	      0.32384909	      0.90927566	      0.21089622	    -20.16865907	     -8.11777417	    -10.93513401	     23.57967082	      0.41154289	    -12.49423701	     -0.03290670	      0.00000000	     22.77816123	     -5.41323808	    -23.40852633	     18.87535868	      0.32943716	     -6.29367043	      1.57160461	      0.00000000	     -3.48185620	     -4.38121284	      2.58970460	     44.04322224	    -15.84689685	     44.04322224	     75.26018035	     44.98281614	      0.00000000	      0.00000000	     44.04322224	    -15.84689685	     44.04322224	     75.26018035	     44.98281614	      0.00000000	      0.00000000
      0.67500000	      2.28933210	      1.33614288	     -6.07881054	      0.33159640	      0.91045885	      0.20923602	    -19.92136134	     -8.50681372	    -11.23847212	     24.87644570	      0.43417588	    -14.31897534	     -1.20435274	      0.00000000	     22.32904158	     -5.00243168	    -23.05042557	     19.31502552	      0.33711079	     -6.15802363	      1.39419563	      0.00000000	     -3.63037757	     -4.49898556	      2.56543453	     44.04391813	    -15.84587884	     44.04391813	     75.25956823	     44.98292827	      0.00000000	      0.00000000	     44.04391813	    -15.84587884	     44.04391813	     75.25956823	     44.98292827	      0.00000000	      0.00000000
      0.68000000	      2.27489807	      1.90054180	     -5.74067192	      0.33927244	      0.91094041	      0.20725417	    -19.18868893	     -9.45655993	    -12.16548067	     26.77356019	      0.46728678	    -15.78813417	     -1.81949378	      0.00000000	     22.10865158	     -4.06745518	    -22.43536117	     19.57313602	      0.34161567	     -6.10433329	      0.38832775	      0.00000000	     -3.50032340	     -5.24221654	      2.28493358	     44.04989869	    -15.83715081	     44.04989869	     75.25435083	     44.98386374	      0.00000000	      0.00000000	     44.04989869	    -15.83715081	     44.04989869	     75.25435083	     44.98386374	      0.00000000	      0.00000000
